<svg xmlns="http://www.w3.org/2000/svg" width="65" height="44" viewBox="0 0 65 44"><g><g><path fill="#f30" d="M41.35 41.167c-.064 0-.126-.006-.189-.01l-.293-.012-.215.012c-.062.004-.124.01-.187.01h-26.55c-6.479 0-11.75-5.27-11.75-11.75 0-4.5 2.931-9.172 6.97-11.108l.614-.293v-.683c0-.137.009-.277.016-.418l.01-.173-.013-.228c-.006-.087-.013-.175-.013-.264 0-4.18 3.403-7.583 7.583-7.583a7.578 7.578 0 0 1 1.246.111c.29.048.574.11.855.192.038.01.077.018.115.03.309.094.61.213.904.347.077.035.152.073.228.11a7.578 7.578 0 0 1 4.236 6.794 1.082 1.082 0 1 0 2.166-.001 9.728 9.728 0 0 0-3.466-7.444c3.106-4.062 8.22-6.64 13.308-6.64 8.39 0 15.359 6.647 16.086 15.046-1.107-.078-2.765-.118-4.424.134a1.083 1.083 0 0 0 .325 2.142c2.413-.365 4.927-.023 5.075-.002 5.044.959 8.846 5.605 8.846 10.817 0 5.99-4.874 10.864-10.863 10.864zm13.874-23.623C54.651 7.794 46.614 0 36.925 0c-5.882 0-11.578 2.885-15.108 7.592-.081-.042-.167-.071-.249-.11a10.104 10.104 0 0 0-.654-.292 9.815 9.815 0 0 0-1.042-.343c-.125-.034-.248-.069-.374-.097a10.366 10.366 0 0 0-.744-.135c-.11-.016-.217-.038-.328-.05a9.855 9.855 0 0 0-1.093-.065c-5.376 0-9.75 4.373-9.75 9.75 0 .138.009.273.018.408v.005C3.095 19.12 0 24.266 0 29.417c0 7.673 6.242 13.916 13.915 13.916h26.55c.113 0 .225-.006.338-.015l.067-.008.145.008c.11.009.221.015.335.015h10.62c7.184 0 13.03-5.845 13.03-13.03 0-5.946-4.146-11.28-9.776-12.76z"/></g></g></svg>