<svg xmlns="http://www.w3.org/2000/svg" width="59" height="64" viewBox="0 0 59 64"><g><g><path fill="#f30" d="M56.15 53.016a1.183 1.183 0 0 0-.037.157c-.658 4.012-11.521 8.308-26.644 8.308-15.122 0-25.985-4.296-26.643-8.308a1.264 1.264 0 0 0-.037-.152v-9.76c.033.03.073.059.107.089.253.223.51.444.8.658 4.37 3.305 13.108 5.873 25.773 5.873 12.612 0 21.329-2.548 25.717-5.833.35-.255.666-.518.963-.786v-.001zM29.47 2.32c15.724 0 26.68 4.584 26.68 8.7s-10.956 8.7-26.68 8.7c-15.725 0-26.681-4.584-26.681-8.7s10.956-8.7 26.68-8.7zm26.68 13.1zm0 8.612a1.156 1.156 0 0 0-.036.516c.022.13.036.261.036.392 0 .187-.048.375-.092.563a2.853 2.853 0 0 1-.3.766 3.932 3.932 0 0 1-.268.428 6.288 6.288 0 0 1-.675.776c-.094.091-.197.182-.302.274-.19.165-.388.33-.61.494-.095.07-.197.139-.298.208-.262.181-.536.361-.837.538-.078.047-.163.092-.245.139-.346.195-.707.388-1.097.576-.05.025-.102.048-.153.071-.435.205-.89.407-1.376.602l-.041.016c-2.635 1.052-6.005 1.938-9.931 2.518-.02.002-.04.004-.06.008-.763.112-1.546.212-2.35.3-.13.014-.269.023-.401.037-.702.073-1.412.14-2.143.194-.334.024-.684.036-1.024.057-.55.032-1.094.068-1.658.088a80.064 80.064 0 0 1-5.641-.003c-.563-.02-1.108-.057-1.657-.089-.34-.02-.69-.032-1.025-.056a69.3 69.3 0 0 1-2.142-.194c-.132-.014-.27-.023-.402-.037a66.444 66.444 0 0 1-2.35-.3c-.02-.003-.04-.005-.059-.009-3.927-.58-7.296-1.465-9.93-2.517a24.638 24.638 0 0 1-1.418-.618c-.05-.025-.104-.048-.154-.071-.39-.188-.75-.38-1.096-.577-.081-.046-.167-.091-.246-.139-.3-.176-.574-.356-.836-.537-.1-.07-.203-.138-.298-.209a9.551 9.551 0 0 1-.61-.494c-.104-.09-.208-.18-.302-.274a6.057 6.057 0 0 1-.421-.454 4.324 4.324 0 0 1-.522-.75 3.588 3.588 0 0 1-.166-.344 2.811 2.811 0 0 1-.134-.421c-.043-.185-.091-.373-.091-.56 0-.13.015-.262.036-.392.029-.175.013-.35-.036-.516V15.42c.14.127.298.25.449.376.083.07.161.14.25.209.347.274.723.544 1.13.807.085.055.18.108.268.163a19.848 19.848 0 0 0 1.507.848c.424.215.868.425 1.335.628.077.034.147.069.224.101.544.231 1.122.451 1.723.665.166.059.34.115.51.173.478.16.972.315 1.484.465.184.053.365.109.554.16.68.188 1.38.367 2.115.531.101.023.21.042.312.064a52.956 52.956 0 0 0 2.724.516c.658.108 1.335.207 2.03.297.179.023.35.05.53.072.863.105 1.756.194 2.674.27.226.019.462.033.691.05a82.8 82.8 0 0 0 2.253.131c.28.013.558.026.843.036 1 .034 2.019.058 3.074.058 1.056 0 2.075-.024 3.075-.058.284-.01.562-.023.843-.036a82.802 82.802 0 0 0 2.253-.132c.23-.017.464-.03.691-.049.918-.075 1.81-.165 2.674-.27.18-.022.351-.049.53-.072a62.543 62.543 0 0 0 2.741-.417 52.917 52.917 0 0 0 2.013-.396c.102-.022.21-.042.312-.064a44.986 44.986 0 0 0 2.115-.531c.189-.052.37-.107.554-.16a38.12 38.12 0 0 0 1.484-.465c.17-.058.344-.114.51-.173.601-.214 1.18-.434 1.723-.665.077-.032.147-.067.224-.1a24.798 24.798 0 0 0 1.76-.853c.38-.203.74-.411 1.082-.624.088-.055.183-.108.268-.163.407-.263.783-.532 1.13-.807.088-.07.165-.14.25-.209.15-.125.31-.25.449-.376zm-.092 15.391a2.854 2.854 0 0 1-.3.766 3.932 3.932 0 0 1-.268.428 6.286 6.286 0 0 1-.675.776c-.094.092-.197.182-.302.274-.19.166-.388.33-.61.494-.095.07-.197.14-.298.209-.262.18-.536.36-.837.537-.078.047-.163.093-.245.139-.346.195-.707.389-1.097.577-.05.024-.102.047-.153.07-.435.206-.89.407-1.376.602-.014.006-.027.01-.041.017-2.635 1.052-6.005 1.937-9.931 2.517-.02.002-.04.004-.06.008-.763.112-1.546.212-2.35.3-.13.014-.269.024-.401.038-.702.073-1.412.14-2.143.193-.334.025-.684.036-1.024.057-.55.033-1.094.069-1.658.088a80.04 80.04 0 0 1-5.641-.003c-.563-.02-1.108-.057-1.657-.088-.34-.02-.69-.033-1.025-.057-.73-.054-1.44-.12-2.142-.194-.132-.014-.27-.023-.402-.037a66.444 66.444 0 0 1-2.35-.3c-.02-.003-.04-.005-.059-.009-3.927-.58-7.296-1.465-9.93-2.517a24.638 24.638 0 0 1-1.418-.618c-.05-.025-.104-.048-.154-.07-.39-.189-.75-.381-1.096-.577-.081-.047-.167-.092-.246-.14-.3-.176-.574-.356-.836-.537-.1-.07-.203-.138-.298-.209a9.551 9.551 0 0 1-.61-.494c-.104-.09-.208-.18-.302-.273a6.057 6.057 0 0 1-.421-.455 4.325 4.325 0 0 1-.522-.75 3.59 3.59 0 0 1-.166-.344 2.81 2.81 0 0 1-.134-.421c-.043-.185-.091-.373-.091-.56 0-.13.015-.262.036-.391.029-.176.013-.35-.036-.517V29.34c.033.03.073.06.107.09.253.222.51.444.8.657 4.37 3.305 13.108 5.874 25.773 5.874 12.612 0 21.329-2.548 25.717-5.833.35-.255.666-.519.963-.786v-.002 8.612a1.156 1.156 0 0 0-.035.517c.022.13.036.26.036.392 0 .186-.048.374-.092.562zm2.243-29.551C56.957 4.895 46.959 0 29.469 0 11.98 0 1.98 4.895.64 9.872c-.098.17-.17.357-.17.568v42.92c0 .189.05.366.136.524 1.37 5.678 13.626 9.917 28.864 9.917 15.204 0 27.44-4.221 28.856-9.879.093-.166.145-.357.145-.561V10.44c0-.212-.072-.399-.17-.57z"/></g></g></svg>