<svg xmlns="http://www.w3.org/2000/svg" width="52" height="52" viewBox="0 0 52 52"><g><g><g><g><g><path fill="#f30" d="M49.593 29.43h-5.654a3.933 3.933 0 1 0-7.503 0h-5.654v-5.654a3.896 3.896 0 0 0 3.496-.558 3.933 3.933 0 0 0-3.496-6.944v-5.655h18.811zm0 20.522H30.782v-5.655a3.933 3.933 0 1 0 0-7.502V31.14h6.84a.855.855 0 0 0 .81-1.125l-.358-1.075a2.223 2.223 0 1 1 4.226 0l-.358 1.075a.855.855 0 0 0 .81 1.125h6.84v18.811zm-20.477-7.11a.855.855 0 0 0-.044.27v6.84H10.26V31.14h5.654a3.933 3.933 0 1 0 7.502 0h5.655v6.84a.855.855 0 0 0 1.125.811l1.075-.358a2.223 2.223 0 1 1 0 4.226l-1.075-.359a.855.855 0 0 0-1.081.542zm.81-33.933a.855.855 0 0 0-.854.855v7.696a.855.855 0 0 0 1.125.81l1.075-.358a2.223 2.223 0 1 1 0 4.226l-1.075-.359a.855.855 0 0 0-1.125.81v6.841h-6.84a.855.855 0 0 0-.811 1.126l.358 1.074a2.223 2.223 0 1 1-4.226 0l.359-1.075a.855.855 0 0 0-.811-1.125H9.406a.855.855 0 0 0-.855.855v20.521c0 .473.382.855.855.855h41.042a.855.855 0 0 0 .855-.855V9.764a.855.855 0 0 0-.855-.855z"/></g></g></g><g><g><g><path fill="#f30" d="M24.104 13.587c-.449.147-.933.147-1.383 0l-1.075-.358a.855.855 0 0 0-1.125.81v6.84h-6.84a.855.855 0 0 0-.81 1.126l.357 1.075a2.223 2.223 0 1 1-4.225 0l.358-1.075a.855.855 0 0 0-.81-1.125H1.71V2.069h18.81v6.84a.855.855 0 0 0 1.125.81l1.075-.358a2.223 2.223 0 0 1 1.383 4.226zm.493-5.864a3.933 3.933 0 0 0-2.366 0v-6.51a.855.855 0 0 0-.855-.854H.856A.855.855 0 0 0 0 1.214v20.52c0 .473.383.856.855.856h6.51a3.933 3.933 0 1 0 7.502 0h6.51a.855.855 0 0 0 .854-.855v-6.51a3.933 3.933 0 0 0 2.366-7.502z"/></g></g></g></g></g></svg>