<svg xmlns="http://www.w3.org/2000/svg" width="52" height="52" viewBox="0 0 52 52"><g><g><g><path fill="#f30" d="M45.729 43.935a4.488 4.488 0 0 1-4.483-4.483 4.488 4.488 0 0 1 4.483-4.483 4.488 4.488 0 0 1 4.483 4.483 4.488 4.488 0 0 1-4.483 4.483zm2.976-10.007a23.31 23.31 0 0 0 .61-5.235c0-8.155-4.152-15.581-11.108-19.864a.896.896 0 1 0-.94 1.527c6.421 3.954 10.255 10.808 10.255 18.337 0 1.547-.18 3.094-.514 4.615a6.284 6.284 0 0 0-7.556 6.145 6.284 6.284 0 0 0 6.277 6.276 6.284 6.284 0 0 0 6.276-6.277 6.282 6.282 0 0 0-3.3-5.524z"/></g><g><path fill="#f30" d="M1.793 39.452a4.488 4.488 0 0 1 4.483-4.483 4.488 4.488 0 0 1 4.484 4.483 4.488 4.488 0 0 1-4.484 4.483 4.488 4.488 0 0 1-4.483-4.483zm32.433 9.13a21.4 21.4 0 0 1-8.223 1.63 21.561 21.561 0 0 1-15.259-6.359 6.253 6.253 0 0 0 1.809-4.4 6.284 6.284 0 0 0-6.277-6.277A6.284 6.284 0 0 0 0 39.452a6.284 6.284 0 0 0 6.276 6.277c1.1 0 2.133-.286 3.032-.785a23.353 23.353 0 0 0 16.695 7.061c3.08 0 6.077-.594 8.909-1.767a.898.898 0 0 0 .486-1.172.898.898 0 0 0-1.172-.484z"/></g><g><path fill="#f30" d="M26.003 1.793a4.488 4.488 0 0 1 4.483 4.483 4.488 4.488 0 0 1-4.483 4.484 4.488 4.488 0 0 1-4.484-4.484 4.488 4.488 0 0 1 4.484-4.483zM3.587 27.987a.897.897 0 0 0 .958-.831 21.41 21.41 0 0 1 15.44-19.111c.765 2.602 3.17 4.508 6.018 4.508a6.284 6.284 0 0 0 6.276-6.277A6.284 6.284 0 0 0 26.003 0a6.284 6.284 0 0 0-6.276 6.254C10.24 8.896 3.453 17.144 2.755 27.03a.896.896 0 0 0 .832.957z"/></g></g></g></svg>